<svg class="face_id_logo" width="80" height="80" xmlns="http://www.w3.org/2000/svg">
    <g fill-rule="nonzero" fill="#fff">
        <path d="M4.114 21.943v-8.914c0-5.036 3.88-8.915 8.915-8.915h8.914a2.057 2.057 0 1 0 0-4.114h-8.914C5.72 0 0 5.721 0 13.029v8.914a2.057 2.057 0 1 0 4.114 0ZM75.886 21.943v-8.914c0-5.036-3.88-8.915-8.915-8.915h-8.914a2.057 2.057 0 1 1 0-4.114h8.914C74.28 0 80 5.721 80 13.029v8.914a2.057 2.057 0 1 1-4.114 0ZM4.114 58.057v8.914c0 5.036 3.88 8.915 8.915 8.915h8.914a2.057 2.057 0 1 1 0 4.114h-8.914C5.72 80 0 74.279 0 66.971v-8.914a2.057 2.057 0 1 1 4.114 0ZM75.886 58.057v8.914c0 5.036-3.88 8.915-8.915 8.915h-8.914a2.057 2.057 0 1 0 0 4.114h8.914C74.28 80 80 74.279 80 66.971v-8.914a2.057 2.057 0 1 0-4.114 0ZM21.754 30.213v5.718c0 1.183.896 2.142 2 2.142 1.105 0 2-.959 2-2.142v-5.718c0-1.183-.895-2.143-2-2.143-1.104 0-2 .96-2 2.143ZM54.737 30.213v5.718c0 1.183.895 2.142 2 2.142 1.104 0 2-.959 2-2.142v-5.718c0-1.183-.896-2.143-2-2.143-1.105 0-2 .96-2 2.143ZM25.932 59.083C29.833 62.724 34.558 64.56 40 64.56s10.167-1.837 14.068-5.478a2.105 2.105 0 0 0-2.873-3.078C48.08 58.913 44.382 60.35 40 60.35c-4.382 0-8.079-1.438-11.195-4.346a2.105 2.105 0 0 0-2.873 3.078ZM40 30.175v14.737c0 .943-.461 1.404-1.409 1.404h-1.398a2.105 2.105 0 1 0 0 4.21h1.398c3.272 0 5.62-2.344 5.62-5.614V30.175a2.105 2.105 0 1 0-4.211 0Z"/>
    </g>
</svg>
