<svg width="32" height="32" viewBox="0 0 32 32" fill="none" xmlns="http://www.w3.org/2000/svg">
<g id="icon/account">
<path id="Vector" d="M29.32 16.0134C29.32 8.65335 23.36 2.66669 16.04 2.66669C8.72001 2.66669 2.76001 8.66669 2.76001 16.0134C2.76001 23.36 8.41334 29.0267 15.4667 29.32C15.6267 29.32 15.7733 29.3467 15.9333 29.3467C15.9867 29.3467 16.04 29.3467 16.0933 29.3467C17.0133 29.3467 17.8667 29.24 18.6667 29.08C18.7067 29.08 18.7467 29.0667 18.7867 29.0534C19.16 28.9734 19.52 28.88 19.8667 28.7734C19.9333 28.7467 20.0133 28.7334 20.08 28.7067C20.48 28.5734 20.8533 28.44 21.1867 28.2934C22.04 27.9334 22.72 27.5467 23.2 27.2267L23.6533 26.9334V26.9067C27.0667 24.4934 29.3067 20.5067 29.3067 16L29.32 16.0134ZM23.6 24.4C23.2667 21.5467 21.1733 19.3334 18.6 19.3334H13.3867C10.84 19.3334 8.74668 21.5067 8.40001 24.3334C6.17334 22.2534 4.76001 19.3067 4.76001 16.0134C4.76001 9.76002 9.82668 4.68002 16.04 4.68002C22.2533 4.68002 27.32 9.77335 27.32 16.0267C27.32 19.3467 25.88 22.3334 23.6 24.4134V24.4Z" fill="#212B32"/>
<path id="Vector_2" d="M15.9999 18.6933C19.0559 18.6933 21.5332 16.216 21.5332 13.16C21.5332 10.104 19.0559 7.62665 15.9999 7.62665C12.9439 7.62665 10.4666 10.104 10.4666 13.16C10.4666 16.216 12.9439 18.6933 15.9999 18.6933Z" fill="#212B32"/>
</g>
</svg>
