<svg width="32" height="32" viewBox="0 0 32 32" fill="none" xmlns="http://www.w3.org/2000/svg">
<g id="icon/help">
<path id="Vector" d="M20.3199 11.7333C20.1599 11.32 19.9066 10.9333 19.5466 10.5733C19.1866 10.2133 18.7199 9.92001 18.1333 9.68001C17.5466 9.44001 16.8133 9.32001 15.9333 9.32001C15.2533 9.32001 14.6399 9.44001 14.0933 9.66667C13.5466 9.89334 13.0799 10.2133 12.6799 10.6267C12.2933 11.04 11.9866 11.52 11.7733 12.0667C11.5866 12.5333 11.4666 13.0933 11.4399 13.5867C11.4399 13.7467 11.5733 13.88 11.7199 13.8933H13.9066C14.0266 13.8933 14.1333 13.76 14.1599 13.64C14.1599 13.6133 14.1999 13.16 14.2533 12.96C14.3333 12.6667 14.4399 12.4133 14.5999 12.2C14.7599 11.9867 14.9466 11.8133 15.1866 11.68C15.4266 11.5467 15.7199 11.48 16.0533 11.48C16.5466 11.48 16.9333 11.6133 17.2133 11.8933C17.4933 12.16 17.6266 12.5867 17.6266 13.16C17.6266 13.4933 17.5733 13.7733 17.4533 14C17.3199 14.2267 17.1466 14.4267 16.9466 14.6133C16.7333 14.8 16.5066 14.9867 16.2666 15.1733C16.0266 15.36 15.7866 15.5733 15.5599 15.8267C15.3333 16.08 15.1466 16.3867 14.9733 16.7467C14.8133 17.1067 14.7066 17.5467 14.6666 18.08V18.6533C14.6666 18.7733 14.7999 18.92 14.9333 18.92H16.8666C16.9999 18.92 17.1199 18.8267 17.1599 18.7067C17.1599 18.6933 17.1599 18.6267 17.1599 18.6133C17.1599 18.4667 17.1599 18.3067 17.1733 18.2133C17.1999 17.8133 17.3333 17.5333 17.5199 17.2933C17.7066 17.0533 17.9333 16.8267 18.1733 16.64C18.4133 16.4533 18.6799 16.2533 18.9599 16.0667C19.2399 15.88 19.4933 15.64 19.7199 15.3733C19.9466 15.1067 20.1466 14.7733 20.2933 14.3867C20.4533 14 20.5199 13.52 20.5199 12.92C20.5199 12.56 20.4399 12.1733 20.2933 11.76L20.3199 11.7333Z" fill="#212B32"/>
<path id="Vector_2" d="M16.8667 20.2133H14.9734C14.804 20.2133 14.6667 20.3506 14.6667 20.52V22.36C14.6667 22.5294 14.804 22.6667 14.9734 22.6667H16.8667C17.0361 22.6667 17.1734 22.5294 17.1734 22.36V20.52C17.1734 20.3506 17.0361 20.2133 16.8667 20.2133Z" fill="#212B32"/>
<path id="Vector_3" d="M16.04 29.36C8.72001 29.36 2.76001 23.3733 2.76001 16.0133C2.76001 8.65333 8.72001 2.67999 16.04 2.67999C23.36 2.67999 29.32 8.66666 29.32 16.0267C29.32 23.3867 23.36 29.3733 16.04 29.3733V29.36ZM16.04 4.67999C9.82668 4.67999 4.76001 9.75999 4.76001 16.0133C4.76001 22.2667 9.81334 27.36 16.04 27.36C22.2667 27.36 27.32 22.2667 27.32 16.0133C27.32 9.75999 22.2533 4.67999 16.04 4.67999Z" fill="#212B32"/>
</g>
</svg>
