<svg width="24" height="24" viewBox="0 0 24 24" fill="none" xmlns="http://www.w3.org/2000/svg">
<path d="M21.7499 11.38C21.5399 11.24 21.2799 11.21 21.0499 11.3L20.8899 11.36V4.98001C20.8899 4.57001 20.5499 4.23001 20.1399 4.23001H4.04991C3.63991 4.23001 3.29991 4.57001 3.29991 4.98001V11.44L2.93991 11.29C2.70991 11.2 2.44991 11.23 2.23991 11.37C2.02991 11.51 1.90991 11.74 1.90991 11.99V21.26C1.90991 21.67 2.24991 22.01 2.65991 22.01H21.3299C21.7399 22.01 22.0799 21.67 22.0799 21.26V11.99C22.0799 11.74 21.9599 11.51 21.7499 11.37V11.38ZM4.79991 5.74001H19.3899V11.98L11.9999 14.95L4.79991 12.06V5.74001ZM20.5799 20.52H3.40991V13.11L3.76991 13.26L11.7199 16.45C11.8999 16.52 12.0999 16.52 12.2799 16.45L20.4199 13.18L20.5799 13.12V20.53V20.52Z" fill="#005EB8"/>
<path d="M17.0401 1.98001C14.3001 1.98001 12.0601 4.21001 12.0601 6.96001C12.0601 9.71001 14.2901 11.93 17.0401 11.93C19.7901 11.93 22.0201 9.70001 22.0201 6.96001C22.0201 4.22001 19.7901 1.98001 17.0401 1.98001Z" fill="#D5281B"/>
</svg>
